<?xml version="1.0" encoding="us-ascii" standalone="no"?><svg xmlns="http://www.w3.org/2000/svg" xmlns:xlink="http://www.w3.org/1999/xlink" contentStyleType="text/css" height="491px" preserveAspectRatio="none" style="width:1455px;height:491px;background:#FFFFFF;" version="1.1" viewBox="0 0 1455 491" width="1455px" zoomAndPan="magnify"><defs/><g><g id="elem_fps"><ellipse cx="761.2487" cy="470.5236" fill="#F1F1F1" rx="27.7487" ry="14.5236" style="stroke:#181818;stroke-width:0.5;"/><text fill="#000000" font-family="sans-serif" font-size="14" lengthAdjust="spacing" textLength="23" x="749.7487" y="473.3703">fps</text></g><g id="elem_communication"><ellipse cx="760.9563" cy="345.7913" fill="#F1F1F1" rx="76.9563" ry="17.7913" style="stroke:#181818;stroke-width:0.5;"/><text fill="#000000" font-family="sans-serif" font-size="14" lengthAdjust="spacing" textLength="111" x="702.5675" y="349.5101">communication</text></g><g id="elem_fmac"><ellipse cx="93.9961" cy="470.5423" fill="#F1F1F1" rx="36.9961" ry="14.5423" style="stroke:#181818;stroke-width:0.5;"/><text fill="#000000" font-family="sans-serif" font-size="14" lengthAdjust="spacing" textLength="36" x="74.6301" y="473.8527">fmac</text></g><g id="elem_eaic"><ellipse cx="1012.9914" cy="20.5236" fill="#F1F1F1" rx="31.9914" ry="14.5236" style="stroke:#181818;stroke-width:0.5;"/><text fill="#000000" font-family="sans-serif" font-size="14" lengthAdjust="spacing" textLength="29" x="998.4914" y="23.3703">eaic</text></g><g id="elem_ccu"><ellipse cx="694.9558" cy="236.0236" fill="#F1F1F1" rx="28.4558" ry="14.5236" style="stroke:#181818;stroke-width:0.5;"/><text fill="#000000" font-family="sans-serif" font-size="14" lengthAdjust="spacing" textLength="24" x="682.9558" y="238.8703">ccu</text></g><g id="elem_aggregation"><ellipse cx="724.8807" cy="127.9761" fill="#F1F1F1" rx="67.8807" ry="15.9761" style="stroke:#181818;stroke-width:0.5;"/><text fill="#000000" font-family="sans-serif" font-size="14" lengthAdjust="spacing" textLength="87" x="678.3807" y="131.7237">aggregation</text></g><g id="elem_extinguishing"><ellipse cx="1204.1781" cy="346.1356" fill="#F1F1F1" rx="71.1781" ry="16.6356" style="stroke:#181818;stroke-width:0.5;"/><text fill="#000000" font-family="sans-serif" font-size="14" lengthAdjust="spacing" textLength="96" x="1153.1781" y="349.8832">extinguishing</text></g><g id="elem_movement"><ellipse cx="532.0766" cy="345.9153" fill="#F1F1F1" rx="65.0766" ry="15.4153" style="stroke:#181818;stroke-width:0.5;"/><text fill="#000000" font-family="sans-serif" font-size="14" lengthAdjust="spacing" textLength="79" x="489.5766" y="349.6629">movement</text></g><g id="elem_situation"><ellipse cx="312.0799" cy="345.7511" fill="#F1F1F1" rx="57.0799" ry="14.7511" style="stroke:#181818;stroke-width:0.5;"/><text fill="#000000" font-family="sans-serif" font-size="14" lengthAdjust="spacing" textLength="63" x="277.5799" y="349.4987">situation</text></g><g id="elem_navigation"><ellipse cx="418.2248" cy="236.145" fill="#F1F1F1" rx="63.7248" ry="15.145" style="stroke:#181818;stroke-width:0.5;"/><text fill="#000000" font-family="sans-serif" font-size="14" lengthAdjust="spacing" textLength="75" x="377.7248" y="239.8925">navigation</text></g><!--link fps to communication--><g id="link_fps_communication"><path d="M738.894,461.7428 C723.261,454.959 703.464,443.4282 694,426 C687.213,413.5016 687.438,406.6181 694,394 C701.08,380.386 708.9591,372.9683 721.6591,365.3873 " fill="none" id="fps-to-communication" style="stroke:#181818;stroke-width:1.0;"/><polygon fill="#181818" points="726.811,362.312,717.0329,363.4904,722.5177,364.8748,721.1333,370.3596,726.811,362.312" style="stroke:#181818;stroke-width:1.0;"/><text fill="#000000" font-family="sans-serif" font-size="13" lengthAdjust="spacing" textLength="86" x="695" y="414.5669">1. start at val</text></g><!--link communication to fps--><g id="link_communication_fps"><path d="M772.661,364.024 C777.843,372.606 783.361,383.418 786,394 C789.442,407.7995 789.667,412.2587 786,426 C783.035,437.109 779.8698,443.3757 774.2158,451.6369 " fill="none" id="communication-to-fps" style="stroke:#181818;stroke-width:1.0;"/><polygon fill="#181818" points="770.827,456.5883,779.2111,451.4204,773.651,452.4621,772.6092,446.902,770.827,456.5883" style="stroke:#181818;stroke-width:1.0;"/><text fill="#000000" font-family="sans-serif" font-size="13" lengthAdjust="spacing" textLength="110" x="795" y="407.0669">31. started at val</text><text fill="#000000" font-family="sans-serif" font-size="13" lengthAdjust="spacing" textLength="124" x="790" y="422.1997">(not_started at val)</text></g><!--link communication to fmac--><g id="link_communication_fmac"><path d="M702.393,357.764 C566.335,382.752 238.5103,442.9595 132.6693,462.3982 " fill="none" id="communication-to-fmac" style="stroke:#181818;stroke-width:1.0;"/><polygon fill="#181818" points="126.768,463.482,136.3425,465.7905,131.6857,462.5788,134.8974,457.9221,126.768,463.482" style="stroke:#181818;stroke-width:1.0;"/><text fill="#000000" font-family="sans-serif" font-size="13" lengthAdjust="spacing" textLength="86" x="489" y="414.5669">2. start at val</text></g><!--link fmac to eaic--><g id="link_fmac_eaic"><path d="M77.0327,457.3147 C51.4609,437.3863 6,395.1824 6,347 C6,127 6,127 6,127 C6,26.529 803.151,21.3674 974.918,21.4134 " fill="none" id="fmac-to-eaic" style="stroke:#181818;stroke-width:1.0;"/><polygon fill="#181818" points="980.918,21.415,971.918,17.415,975.918,21.415,971.918,25.415,980.918,21.415" style="stroke:#181818;stroke-width:1.0;"/><text fill="#000000" font-family="sans-serif" font-size="13" lengthAdjust="spacing" textLength="108" x="7" y="240.5669">3. execute at val</text></g><!--link fmac to ccu--><g id="link_fmac_ccu"><path d="M94.2853,455.9369 C95.9347,418.1317 106.613,312.3 174,281 C185.294,275.754 554.262,247.6084 660.952,239.5594 " fill="none" id="fmac-to-ccu" style="stroke:#181818;stroke-width:1.0;"/><polygon fill="#181818" points="666.935,239.108,657.6596,235.7964,661.9492,239.4841,658.2614,243.7737,666.935,239.108" style="stroke:#181818;stroke-width:1.0;"/><text fill="#000000" font-family="sans-serif" font-size="13" lengthAdjust="spacing" textLength="108" x="126" y="350.5669">4. execute at val</text></g><!--link eaic to aggregation--><g id="link_eaic_aggregation"><path d="M981.008,22.809 C918.477,25.986 783.084,36.095 748,65 C734,76.534 729.4083,91.5141 727.2643,105.8361 " fill="none" id="eaic-to-aggregation" style="stroke:#181818;stroke-width:1.0;"/><polygon fill="#181818" points="726.376,111.77,731.6644,103.4614,727.1163,106.8251,723.7525,102.277,726.376,111.77" style="stroke:#181818;stroke-width:1.0;"/><text fill="#000000" font-family="sans-serif" font-size="13" lengthAdjust="spacing" textLength="127" x="749" y="78.0669">18. get_coordinates</text></g><!--link aggregation to eaic--><g id="link_aggregation_eaic"><path d="M769.952,115.934 C801.432,107.725 844.266,95.63 881,82 C902.567,73.998 955.0544,49.2451 986.5244,34.2061 " fill="none" id="aggregation-to-eaic" style="stroke:#181818;stroke-width:1.0;"/><polygon fill="#181818" points="991.938,31.619,982.0929,31.8905,987.4267,33.7749,985.5423,39.1087,991.938,31.619" style="stroke:#181818;stroke-width:1.0;"/><text fill="#000000" font-family="sans-serif" font-size="13" lengthAdjust="spacing" textLength="153" x="921" y="78.0669">19. coordinates with val</text></g><!--link eaic to extinguishing--><g id="link_eaic_extinguishing"><path d="M1036.64,30.52 C1051.81,37.569 1070.55,48.895 1081,65 C1111.83,112.505 1075.66,139.865 1100,191 C1123.26,239.859 1154.41,234.449 1182,281 C1191.11,296.363 1195.672,310.2299 1199.092,323.6859 " fill="none" id="eaic-to-extinguishing" style="stroke:#181818;stroke-width:1.0;"/><polygon fill="#181818" points="1200.57,329.501,1202.2298,319.793,1199.3384,324.6551,1194.4763,321.7636,1200.57,329.501" style="stroke:#181818;stroke-width:1.0;"/><text fill="#000000" font-family="sans-serif" font-size="13" lengthAdjust="spacing" textLength="100" x="1101" y="187.0669">21. start_action</text></g><!--link extinguishing to eaic--><g id="link_extinguishing_eaic"><path d="M1208.13,329.148 C1215.42,298.022 1227.82,227.306 1206,174 C1181.77,114.796 1163.44,103.027 1112,65 C1089.51,48.372 1065.3418,38.2921 1044.3218,31.1591 " fill="none" id="extinguishing-to-eaic" style="stroke:#181818;stroke-width:1.0;"/><polygon fill="#181818" points="1038.64,29.231,1045.8773,35.911,1043.3748,30.8377,1048.448,28.3353,1038.64,29.231" style="stroke:#181818;stroke-width:1.0;"/><text fill="#000000" font-family="sans-serif" font-size="13" lengthAdjust="spacing" textLength="119" x="1213" y="187.0669">15. confirm_action</text></g><!--link extinguishing to eaic--><g id="link_extinguishing_eaic"><path d="M1231.51,330.564 C1281.28,302.441 1377.87,237.489 1341,174 C1277.85,65.252 1118.7522,34.0799 1049.8622,25.3309 " fill="none" id="extinguishing-to-eaic-1" style="stroke:#181818;stroke-width:1.0;"/><polygon fill="#181818" points="1043.91,24.575,1052.3343,29.677,1048.8702,25.2049,1053.3422,21.7408,1043.91,24.575" style="stroke:#181818;stroke-width:1.0;"/><text fill="#000000" font-family="sans-serif" font-size="13" lengthAdjust="spacing" textLength="98" x="1349" y="187.0669">28. stop_action</text></g><!--link ccu to aggregation--><g id="link_ccu_aggregation"><path d="M722.702,232.418 C768.806,227.486 858.101,215.012 877,191 C904.629,155.895 847.3898,141.278 794.2378,134.645 " fill="none" id="ccu-to-aggregation" style="stroke:#181818;stroke-width:1.0;"/><polygon fill="#181818" points="788.284,133.902,796.7194,138.9857,793.2455,134.5212,797.7101,131.0473,788.284,133.902" style="stroke:#181818;stroke-width:1.0;"/><text fill="#000000" font-family="sans-serif" font-size="13" lengthAdjust="spacing" textLength="119" x="885" y="187.0669">9. get_coordinates</text></g><!--link aggregation to ccu--><g id="link_aggregation_ccu"><path d="M720.702,144.187 C714.837,164.91 706.0509,195.9528 700.4489,215.7468 " fill="none" id="aggregation-to-ccu" style="stroke:#181818;stroke-width:1.0;"/><polygon fill="#181818" points="698.815,221.52,705.1147,213.9494,700.1766,216.709,697.417,211.7709,698.815,221.52" style="stroke:#181818;stroke-width:1.0;"/><text fill="#000000" font-family="sans-serif" font-size="13" lengthAdjust="spacing" textLength="153" x="713" y="187.0669">10. coordinates with val</text></g><!--link ccu to movement--><g id="link_ccu_movement"><path d="M678.819,248.136 C660.862,260.454 630.986,280.832 605,298 C587.77,309.383 573.1327,318.815 558.5457,328.125 " fill="none" id="ccu-to-movement" style="stroke:#181818;stroke-width:1.0;"/><polygon fill="#181818" points="553.488,331.353,563.2265,329.8828,557.7027,328.663,558.9225,323.1392,553.488,331.353" style="stroke:#181818;stroke-width:1.0;"/><text fill="#000000" font-family="sans-serif" font-size="13" lengthAdjust="spacing" textLength="101" x="631" y="294.0669">11. move to val</text></g><!--link movement to ccu--><g id="link_movement_ccu"><path d="M515.768,330.823 C502.121,317.185 486.657,296.421 499,281 C519.703,255.134 611.663,243.9514 660.786,239.6334 " fill="none" id="movement-to-ccu" style="stroke:#181818;stroke-width:1.0;"/><polygon fill="#181818" points="666.763,239.108,657.4473,235.9114,661.7822,239.5458,658.1478,243.8807,666.763,239.108" style="stroke:#181818;stroke-width:1.0;"/><text fill="#000000" font-family="sans-serif" font-size="13" lengthAdjust="spacing" textLength="96" x="500" y="294.0669">13. done at val</text></g><!--link ccu to extinguishing--><g id="link_ccu_extinguishing"><path d="M723.333,237.623 C783.066,239.58 925.815,247.669 1040,281 C1056.99,285.958 1059.68,291.166 1076,298 C1105.81,310.48 1134.5576,321.0296 1160.1876,330.0116 " fill="none" id="ccu-to-extinguishing" style="stroke:#181818;stroke-width:1.0;"/><polygon fill="#181818" points="1165.85,331.996,1158.6794,325.2445,1161.1314,330.3424,1156.0336,332.7944,1165.85,331.996" style="stroke:#181818;stroke-width:1.0;"/><text fill="#000000" font-family="sans-serif" font-size="13" lengthAdjust="spacing" textLength="100" x="1077" y="294.0669">14. start_action</text></g><!--link ccu to extinguishing--><g id="link_ccu_extinguishing"><path d="M720.595,242.744 C755.764,250.745 820.938,265.963 876,281 C901.092,287.853 906.692,291.996 932,298 C1004.507,315.2 1083.3526,327.9817 1138.7426,336.0447 " fill="none" id="ccu-to-extinguishing-1" style="stroke:#181818;stroke-width:1.0;"/><polygon fill="#181818" points="1144.68,336.909,1136.3501,331.6543,1139.7321,336.1888,1135.1977,339.5708,1144.68,336.909" style="stroke:#181818;stroke-width:1.0;"/><text fill="#000000" font-family="sans-serif" font-size="13" lengthAdjust="spacing" textLength="98" x="933" y="294.0669">27. stop_action</text></g><!--link ccu to situation--><g id="link_ccu_situation"><path d="M667.05,239.154 C589.633,245.316 376.374,263.686 350,281 C332.176,292.701 323.5411,310.2488 318.2341,325.2668 " fill="none" id="ccu-to-situation" style="stroke:#181818;stroke-width:1.0;"/><polygon fill="#181818" points="316.235,330.924,323.0051,323.771,317.9009,326.2097,315.4622,321.1055,316.235,330.924" style="stroke:#181818;stroke-width:1.0;"/><text fill="#000000" font-family="sans-serif" font-size="13" lengthAdjust="spacing" textLength="135" x="351" y="294.0669">22. is_action_running</text></g><!--link situation to ccu--><g id="link_situation_ccu"><path d="M264.647,337.406 C219.234,328.203 161.23,310.194 188,281 C192.091,276.538 555.0762,247.9118 660.9262,239.6508 " fill="none" id="situation-to-ccu" style="stroke:#181818;stroke-width:1.0;"/><polygon fill="#181818" points="666.908,239.184,657.6241,235.8964,661.9232,239.573,658.2465,243.8721,666.908,239.184" style="stroke:#181818;stroke-width:1.0;"/><text fill="#000000" font-family="sans-serif" font-size="13" lengthAdjust="spacing" textLength="135" x="189" y="294.0669">23. action_is_running</text></g><!--link ccu to communication--><g id="link_ccu_communication"><path d="M713,247.4 C724.788,255.158 739.527,266.838 748,281 C756.557,295.303 759.1241,308.2988 760.1421,321.8678 " fill="none" id="ccu-to-communication" style="stroke:#181818;stroke-width:1.0;"/><polygon fill="#181818" points="760.591,327.851,763.9065,318.577,760.2169,322.865,755.9289,319.1755,760.591,327.851" style="stroke:#181818;stroke-width:1.0;"/><text fill="#000000" font-family="sans-serif" font-size="13" lengthAdjust="spacing" textLength="110" x="757" y="294.0669">30. started at val</text></g><!--link aggregation to navigation--><g id="link_aggregation_navigation"><path d="M658.605,131.659 C549.96,136.698 344.002,149.405 322,174 C301.528,196.886 335.5971,212.7573 370.0161,223.0413 " fill="none" id="aggregation-to-navigation" style="stroke:#181818;stroke-width:1.0;"/><polygon fill="#181818" points="375.765,224.759,368.2868,218.3499,370.9743,223.3276,365.9966,226.015,375.765,224.759" style="stroke:#181818;stroke-width:1.0;"/><text fill="#000000" font-family="sans-serif" font-size="13" lengthAdjust="spacing" textLength="143" x="323" y="187.0669">5. 16. get_coordinates</text></g><!--link navigation to aggregation--><g id="link_navigation_aggregation"><path d="M438.245,221.768 C460.079,208.035 496.258,186.807 530,174 C575.801,156.616 624.3994,145.7957 664.1254,138.6257 " fill="none" id="navigation-to-aggregation" style="stroke:#181818;stroke-width:1.0;"/><polygon fill="#181818" points="670.03,137.56,660.4626,135.2221,665.1095,138.4481,661.8836,143.0949,670.03,137.56" style="stroke:#181818;stroke-width:1.0;"/><text fill="#000000" font-family="sans-serif" font-size="13" lengthAdjust="spacing" textLength="169" x="531" y="187.0669">6. 17. coordinates with val</text></g><!--SRC=[ZPBDReCm48JlFCKUmo6eXgJvEUH9AY7B66Afs15Uqpn-RS0GOrBr515zipFUsLtzq2dizpVOCTMsHWf6KIYPmXL81XffXq0HUlgT1C2egLlA79h_0tL6LoZyL5vDC7p9dLHOXl-cYPizIZaLWqkH0NzoPf1xduLXp3Za425E38wWJTFnPddTEOE6OycKwYeXAN8ziOFb4uLiZD1t-pEyqESkANCZ4ckuDVOIJnr8XxQgvosNEDZRUUuRK8qRyr3aJ0vRpjiXJmvLZuZK0iqSCRTj2JqnPMUajFA5ZUwW-5XNbhmyUXH9sejb2SSCo6UyY4WrbKQimGi7FmBlspR-4iZbZMB9CGfMxTXGvFH6wji9ezcRgvIShsbUP43bbfhMQHVhDnhKiyf_T25aBRhMT_K7dP-3Mdy1]--></g></svg>