<?xml version="1.0" encoding="us-ascii" standalone="no"?><svg xmlns="http://www.w3.org/2000/svg" xmlns:xlink="http://www.w3.org/1999/xlink" contentStyleType="text/css" height="506px" preserveAspectRatio="none" style="width:1455px;height:506px;background:#FFFFFF;" version="1.1" viewBox="0 0 1455 506" width="1455px" zoomAndPan="magnify"><defs/><g><g id="elem_fps"><ellipse cx="682.2487" cy="485.5236" fill="#F1F1F1" rx="27.7487" ry="14.5236" style="stroke:#181818;stroke-width:0.5;"/><text fill="#000000" font-family="sans-serif" font-size="14" lengthAdjust="spacing" textLength="23" x="670.7487" y="488.3703">fps</text></g><g id="elem_communication"><ellipse cx="682.9563" cy="345.7913" fill="#F1F1F1" rx="76.9563" ry="17.7913" style="stroke:#181818;stroke-width:0.5;"/><text fill="#000000" font-family="sans-serif" font-size="14" lengthAdjust="spacing" textLength="111" x="624.5675" y="349.5101">communication</text></g><g id="elem_fmac"><ellipse cx="137.9961" cy="485.5423" fill="#F1F1F1" rx="36.9961" ry="14.5423" style="stroke:#181818;stroke-width:0.5;"/><text fill="#000000" font-family="sans-serif" font-size="14" lengthAdjust="spacing" textLength="36" x="118.6301" y="488.8527">fmac</text></g><g id="elem_eaic"><ellipse cx="1012.9914" cy="20.5236" fill="#F1F1F1" rx="31.9914" ry="14.5236" style="stroke:#181818;stroke-width:0.5;"/><text fill="#000000" font-family="sans-serif" font-size="14" lengthAdjust="spacing" textLength="29" x="998.4914" y="23.3703">eaic</text></g><g id="elem_ccu"><ellipse cx="694.9558" cy="236.0236" fill="#F1F1F1" rx="28.4558" ry="14.5236" style="stroke:#181818;stroke-width:0.5;"/><text fill="#000000" font-family="sans-serif" font-size="14" lengthAdjust="spacing" textLength="24" x="682.9558" y="238.8703">ccu</text></g><g id="elem_aggregation"><ellipse cx="724.8807" cy="127.9761" fill="#F1F1F1" rx="67.8807" ry="15.9761" style="stroke:#181818;stroke-width:0.5;"/><text fill="#000000" font-family="sans-serif" font-size="14" lengthAdjust="spacing" textLength="87" x="678.3807" y="131.7237">aggregation</text></g><g id="elem_extinguishing"><ellipse cx="1204.1781" cy="346.1356" fill="#F1F1F1" rx="71.1781" ry="16.6356" style="stroke:#181818;stroke-width:0.5;"/><text fill="#000000" font-family="sans-serif" font-size="14" lengthAdjust="spacing" textLength="96" x="1153.1781" y="349.8832">extinguishing</text></g><g id="elem_movement"><ellipse cx="506.0766" cy="345.9153" fill="#F1F1F1" rx="65.0766" ry="15.4153" style="stroke:#181818;stroke-width:0.5;"/><text fill="#000000" font-family="sans-serif" font-size="14" lengthAdjust="spacing" textLength="79" x="463.5766" y="349.6629">movement</text></g><g id="elem_situation"><ellipse cx="312.0799" cy="345.7511" fill="#F1F1F1" rx="57.0799" ry="14.7511" style="stroke:#181818;stroke-width:0.5;"/><text fill="#000000" font-family="sans-serif" font-size="14" lengthAdjust="spacing" textLength="63" x="277.5799" y="349.4987">situation</text></g><g id="elem_navigation"><ellipse cx="418.2248" cy="236.145" fill="#F1F1F1" rx="63.7248" ry="15.145" style="stroke:#181818;stroke-width:0.5;"/><text fill="#000000" font-family="sans-serif" font-size="14" lengthAdjust="spacing" textLength="75" x="377.7248" y="239.8925">navigation</text></g><!--link fps to communication--><g id="link_fps_communication"><path d="M702.751,475.683 C716.637,468.5508 733.814,457.0454 742,441 C751.493,422.3927 751.068,412.8178 742,394 C735.746,381.023 728.9337,373.8967 717.5387,366.1387 " fill="none" id="fps-to-communication" style="stroke:#181818;stroke-width:1.0;"/><polygon fill="#181818" points="712.579,362.762,717.7674,371.1334,716.712,365.5759,722.2696,364.5205,712.579,362.762" style="stroke:#181818;stroke-width:1.0;"/><text fill="#000000" font-family="sans-serif" font-size="13" lengthAdjust="spacing" textLength="86" x="750" y="414.5669">1. start at val</text><text fill="#000000" font-family="sans-serif" font-size="13" lengthAdjust="spacing" textLength="59" x="763.5" y="429.6997">(via http)</text></g><!--link communication to fps--><g id="link_communication_fps"><path d="M627.342,358.471 C608.051,365.403 588.416,376.45 577,394 C565.61,411.5102 565.395,423.6312 577,441 C594.32,466.9224 624.3415,476.4136 649.3175,480.6496 " fill="none" id="communication-to-fps" style="stroke:#181818;stroke-width:1.0;"/><polygon fill="#181818" points="655.233,481.6529,647.0286,476.2043,650.3034,480.8168,645.6909,484.0916,655.233,481.6529" style="stroke:#181818;stroke-width:1.0;"/><text fill="#000000" font-family="sans-serif" font-size="13" lengthAdjust="spacing" textLength="110" x="598.5" y="407.0669">31. started at val</text><text fill="#000000" font-family="sans-serif" font-size="13" lengthAdjust="spacing" textLength="155" x="578" y="422.1997">(not_authentic_task val)</text><text fill="#000000" font-family="sans-serif" font-size="13" lengthAdjust="spacing" textLength="59" x="626" y="437.3325">(via http)</text></g><!--link communication to fmac--><g id="link_communication_fmac"><path d="M625.52,358.045 C583.067,366.642 524.037,379.519 473,394 C411.476,411.4559 398.567,423.6972 337,441 C279.123,457.2659 216.2555,470.0013 176.5865,477.468 " fill="none" id="communication-to-fmac" style="stroke:#181818;stroke-width:1.0;"/><polygon fill="#181818" points="170.69,478.5779,180.2746,480.8441,175.6037,477.653,178.7948,472.9821,170.69,478.5779" style="stroke:#181818;stroke-width:1.0;"/><text fill="#000000" font-family="sans-serif" font-size="13" lengthAdjust="spacing" textLength="86" x="474" y="422.0669">2. start at val</text></g><!--link fmac to communication--><g id="link_fmac_communication"><path d="M140.239,470.998 C144.426,450.4808 155.542,411.9466 182,394 C256.87,343.216 498.242,375.316 588,364 C600.384,362.439 607.6951,361.3759 620.2181,359.1939 " fill="none" id="fmac-to-communication" style="stroke:#181818;stroke-width:1.0;"/><polygon fill="#181818" points="626.129,358.164,616.576,355.7682,621.2032,359.0223,617.9492,363.6495,626.129,358.164" style="stroke:#181818;stroke-width:1.0;"/><text fill="#000000" font-family="sans-serif" font-size="13" lengthAdjust="spacing" textLength="145" x="183" y="422.0669">not_authentic_task val</text></g><!--link fmac to eaic--><g id="link_fmac_eaic"><path d="M115.308,473.8727 C77.5676,454.4436 6,409.3768 6,347 C6,127 6,127 6,127 C6,26.529 803.151,21.3674 974.918,21.4134 " fill="none" id="fmac-to-eaic" style="stroke:#181818;stroke-width:1.0;"/><polygon fill="#181818" points="980.918,21.415,971.918,17.415,975.918,21.415,971.918,25.415,980.918,21.415" style="stroke:#181818;stroke-width:1.0;"/><text fill="#000000" font-family="sans-serif" font-size="13" lengthAdjust="spacing" textLength="108" x="7" y="240.5669">3. execute at val</text></g><!--link fmac to ccu--><g id="link_fmac_ccu"><path d="M133.148,470.8852 C123.996,442.9079 106.836,377.43 127,328 C138.04,300.936 146.557,293.453 173,281 C184.288,275.684 553.9959,247.5866 660.8969,239.5536 " fill="none" id="fmac-to-ccu" style="stroke:#181818;stroke-width:1.0;"/><polygon fill="#181818" points="666.88,239.104,657.6056,235.7896,661.8941,239.4787,658.205,243.7672,666.88,239.104" style="stroke:#181818;stroke-width:1.0;"/><text fill="#000000" font-family="sans-serif" font-size="13" lengthAdjust="spacing" textLength="108" x="128" y="350.5669">4. execute at val</text></g><!--link eaic to aggregation--><g id="link_eaic_aggregation"><path d="M981.008,22.809 C918.477,25.986 783.084,36.095 748,65 C734,76.534 729.4083,91.5141 727.2643,105.8361 " fill="none" id="eaic-to-aggregation" style="stroke:#181818;stroke-width:1.0;"/><polygon fill="#181818" points="726.376,111.77,731.6644,103.4614,727.1163,106.8251,723.7525,102.277,726.376,111.77" style="stroke:#181818;stroke-width:1.0;"/><text fill="#000000" font-family="sans-serif" font-size="13" lengthAdjust="spacing" textLength="127" x="749" y="78.0669">18. get_coordinates</text></g><!--link aggregation to eaic--><g id="link_aggregation_eaic"><path d="M769.952,115.934 C801.432,107.725 844.266,95.63 881,82 C902.567,73.998 955.0544,49.2451 986.5244,34.2061 " fill="none" id="aggregation-to-eaic" style="stroke:#181818;stroke-width:1.0;"/><polygon fill="#181818" points="991.938,31.619,982.0929,31.8905,987.4267,33.7749,985.5423,39.1087,991.938,31.619" style="stroke:#181818;stroke-width:1.0;"/><text fill="#000000" font-family="sans-serif" font-size="13" lengthAdjust="spacing" textLength="153" x="921" y="78.0669">19. coordinates with val</text></g><!--link eaic to extinguishing--><g id="link_eaic_extinguishing"><path d="M1036.64,30.52 C1051.81,37.569 1070.55,48.895 1081,65 C1111.83,112.505 1075.66,139.865 1100,191 C1123.26,239.859 1154.41,234.449 1182,281 C1191.11,296.363 1195.672,310.2299 1199.092,323.6859 " fill="none" id="eaic-to-extinguishing" style="stroke:#181818;stroke-width:1.0;"/><polygon fill="#181818" points="1200.57,329.501,1202.2298,319.793,1199.3384,324.6551,1194.4763,321.7636,1200.57,329.501" style="stroke:#181818;stroke-width:1.0;"/><text fill="#000000" font-family="sans-serif" font-size="13" lengthAdjust="spacing" textLength="100" x="1101" y="187.0669">21. start_action</text></g><!--link extinguishing to eaic--><g id="link_extinguishing_eaic"><path d="M1208.13,329.148 C1215.42,298.022 1227.82,227.306 1206,174 C1181.77,114.796 1163.44,103.027 1112,65 C1089.51,48.372 1065.3418,38.2921 1044.3218,31.1591 " fill="none" id="extinguishing-to-eaic" style="stroke:#181818;stroke-width:1.0;"/><polygon fill="#181818" points="1038.64,29.231,1045.8773,35.911,1043.3748,30.8377,1048.448,28.3353,1038.64,29.231" style="stroke:#181818;stroke-width:1.0;"/><text fill="#000000" font-family="sans-serif" font-size="13" lengthAdjust="spacing" textLength="119" x="1213" y="187.0669">15. confirm_action</text></g><!--link extinguishing to eaic--><g id="link_extinguishing_eaic"><path d="M1231.51,330.564 C1281.28,302.441 1377.87,237.489 1341,174 C1277.85,65.252 1118.7522,34.0799 1049.8622,25.3309 " fill="none" id="extinguishing-to-eaic-1" style="stroke:#181818;stroke-width:1.0;"/><polygon fill="#181818" points="1043.91,24.575,1052.3343,29.677,1048.8702,25.2049,1053.3422,21.7408,1043.91,24.575" style="stroke:#181818;stroke-width:1.0;"/><text fill="#000000" font-family="sans-serif" font-size="13" lengthAdjust="spacing" textLength="98" x="1349" y="187.0669">28. stop_action</text></g><!--link ccu to aggregation--><g id="link_ccu_aggregation"><path d="M722.702,232.418 C768.806,227.486 858.101,215.012 877,191 C904.629,155.895 847.3898,141.278 794.2378,134.645 " fill="none" id="ccu-to-aggregation" style="stroke:#181818;stroke-width:1.0;"/><polygon fill="#181818" points="788.284,133.902,796.7194,138.9857,793.2455,134.5212,797.7101,131.0473,788.284,133.902" style="stroke:#181818;stroke-width:1.0;"/><text fill="#000000" font-family="sans-serif" font-size="13" lengthAdjust="spacing" textLength="119" x="885" y="187.0669">9. get_coordinates</text></g><!--link aggregation to ccu--><g id="link_aggregation_ccu"><path d="M720.702,144.187 C714.837,164.91 706.0509,195.9528 700.4489,215.7468 " fill="none" id="aggregation-to-ccu" style="stroke:#181818;stroke-width:1.0;"/><polygon fill="#181818" points="698.815,221.52,705.1147,213.9494,700.1766,216.709,697.417,211.7709,698.815,221.52" style="stroke:#181818;stroke-width:1.0;"/><text fill="#000000" font-family="sans-serif" font-size="13" lengthAdjust="spacing" textLength="153" x="713" y="187.0669">10. coordinates with val</text></g><!--link ccu to movement--><g id="link_ccu_movement"><path d="M679.852,248.318 C662.327,261.161 632.364,282.352 605,298 C582.538,310.845 561.4841,320.8697 541.5421,329.7307 " fill="none" id="ccu-to-movement" style="stroke:#181818;stroke-width:1.0;"/><polygon fill="#181818" points="536.059,332.167,545.9079,332.1679,540.6282,330.1367,542.6594,324.8571,536.059,332.167" style="stroke:#181818;stroke-width:1.0;"/><text fill="#000000" font-family="sans-serif" font-size="13" lengthAdjust="spacing" textLength="101" x="632" y="294.0669">11. move to val</text></g><!--link movement to ccu--><g id="link_movement_ccu"><path d="M498.963,330.374 C493.284,316.203 487.895,294.875 499,281 C519.703,255.134 611.663,243.9514 660.786,239.6334 " fill="none" id="movement-to-ccu" style="stroke:#181818;stroke-width:1.0;"/><polygon fill="#181818" points="666.763,239.108,657.4473,235.9114,661.7822,239.5458,658.1478,243.8807,666.763,239.108" style="stroke:#181818;stroke-width:1.0;"/><text fill="#000000" font-family="sans-serif" font-size="13" lengthAdjust="spacing" textLength="96" x="500" y="294.0669">13. done at val</text></g><!--link ccu to extinguishing--><g id="link_ccu_extinguishing"><path d="M723.333,237.623 C783.066,239.58 925.815,247.669 1040,281 C1056.99,285.958 1059.68,291.166 1076,298 C1105.81,310.48 1134.5576,321.0296 1160.1876,330.0116 " fill="none" id="ccu-to-extinguishing" style="stroke:#181818;stroke-width:1.0;"/><polygon fill="#181818" points="1165.85,331.996,1158.6794,325.2445,1161.1314,330.3424,1156.0336,332.7944,1165.85,331.996" style="stroke:#181818;stroke-width:1.0;"/><text fill="#000000" font-family="sans-serif" font-size="13" lengthAdjust="spacing" textLength="100" x="1077" y="294.0669">14. start_action</text></g><!--link ccu to extinguishing--><g id="link_ccu_extinguishing"><path d="M720.119,243.055 C754.317,251.351 817.407,266.836 871,281 C898.21,288.191 904.543,291.818 932,298 C1004.933,314.42 1084.0468,327.3883 1139.3668,335.7113 " fill="none" id="ccu-to-extinguishing-1" style="stroke:#181818;stroke-width:1.0;"/><polygon fill="#181818" points="1145.3,336.604,1136.9953,331.3095,1140.3556,335.8601,1135.8051,339.2205,1145.3,336.604" style="stroke:#181818;stroke-width:1.0;"/><text fill="#000000" font-family="sans-serif" font-size="13" lengthAdjust="spacing" textLength="98" x="933" y="294.0669">27. stop_action</text></g><!--link ccu to situation--><g id="link_ccu_situation"><path d="M667.147,239.092 C589.462,245.126 374.356,263.266 348,281 C330.548,292.742 322.4803,310.2248 317.6393,325.2298 " fill="none" id="ccu-to-situation" style="stroke:#181818;stroke-width:1.0;"/><polygon fill="#181818" points="315.797,330.94,322.3672,323.6029,317.3322,326.1815,314.7536,321.1466,315.797,330.94" style="stroke:#181818;stroke-width:1.0;"/><text fill="#000000" font-family="sans-serif" font-size="13" lengthAdjust="spacing" textLength="135" x="349" y="294.0669">22. is_action_running</text></g><!--link situation to ccu--><g id="link_situation_ccu"><path d="M264.701,337.561 C218.875,328.445 159.974,310.468 187,281 C191.1,276.53 554.8121,247.9088 660.8711,239.6498 " fill="none" id="situation-to-ccu" style="stroke:#181818;stroke-width:1.0;"/><polygon fill="#181818" points="666.853,239.184,657.5696,235.8948,661.8681,239.5722,658.1907,243.8707,666.853,239.184" style="stroke:#181818;stroke-width:1.0;"/><text fill="#000000" font-family="sans-serif" font-size="13" lengthAdjust="spacing" textLength="135" x="188" y="294.0669">23. action_is_running</text></g><!--link ccu to communication--><g id="link_ccu_communication"><path d="M714.322,246.83 C733.471,258.005 758.533,277.387 748,298 C741.093,311.517 733.3973,318.9048 720.9643,326.5378 " fill="none" id="ccu-to-communication" style="stroke:#181818;stroke-width:1.0;"/><polygon fill="#181818" points="715.851,329.677,725.6137,328.3771,720.1121,327.061,721.4281,321.5594,715.851,329.677" style="stroke:#181818;stroke-width:1.0;"/><text fill="#000000" font-family="sans-serif" font-size="13" lengthAdjust="spacing" textLength="110" x="752" y="294.0669">30. started at val</text></g><!--link aggregation to navigation--><g id="link_aggregation_navigation"><path d="M658.605,131.659 C549.96,136.698 344.002,149.405 322,174 C301.528,196.886 335.5971,212.7573 370.0161,223.0413 " fill="none" id="aggregation-to-navigation" style="stroke:#181818;stroke-width:1.0;"/><polygon fill="#181818" points="375.765,224.759,368.2868,218.3499,370.9743,223.3276,365.9966,226.015,375.765,224.759" style="stroke:#181818;stroke-width:1.0;"/><text fill="#000000" font-family="sans-serif" font-size="13" lengthAdjust="spacing" textLength="143" x="323" y="187.0669">5. 16. get_coordinates</text></g><!--link navigation to aggregation--><g id="link_navigation_aggregation"><path d="M438.245,221.768 C460.079,208.035 496.258,186.807 530,174 C575.801,156.616 624.3994,145.7957 664.1254,138.6257 " fill="none" id="navigation-to-aggregation" style="stroke:#181818;stroke-width:1.0;"/><polygon fill="#181818" points="670.03,137.56,660.4626,135.2221,665.1095,138.4481,661.8836,143.0949,670.03,137.56" style="stroke:#181818;stroke-width:1.0;"/><text fill="#000000" font-family="sans-serif" font-size="13" lengthAdjust="spacing" textLength="169" x="531" y="187.0669">6. 17. coordinates with val</text></g><!--SRC=[VPB1Ri8m44JlVCKUoO6e2L0AXtv9fMXbJB9gOwDudVBvjPEOO1nwGX5lTcPdlRvSJGQRpIUiXMvRgqWWarOPdA38mJ1s3CZGuy-NMlU4q31VirK4Z_fBYyBBobYsY7hJ4so3WpnFC3WJfRb2ourKJA9YDD_-dooozrxZA8aqk6vpa3SfBClWEpF9PiiMZmfXFRTBXdexy0JMTIVhkQkF76h9bT2wEvD2bcPYXv0t9bLRCetx6JeAcrSe_8YLCrmQUqod3gH7MztBrcqmsBjv_XjOZvq7A74kTalEoo4F7jNNX3J4zXwnTFScCp5LPvLoyfbDkj- -FHzzzR3qA5BOqrp2FeVYFIqYKKr7Avp10mU_nCsoJNWxnV65Oiun2fwkuq8LXnVIS9qucdkbPwtkh-bUP4ILZfhgTCM6HgFpFENV-n3gGbqRRlKFNNv4P_q3]--></g></svg>