<?xml version="1.0" encoding="us-ascii" standalone="no"?><svg xmlns="http://www.w3.org/2000/svg" xmlns:xlink="http://www.w3.org/1999/xlink" contentStyleType="text/css" height="491px" preserveAspectRatio="none" style="width:1431px;height:491px;background:#FFFFFF;" version="1.1" viewBox="0 0 1431 491" width="1431px" zoomAndPan="magnify"><defs/><g><g id="elem_fps"><ellipse cx="761.2487" cy="470.5236" fill="#F1F1F1" rx="27.7487" ry="14.5236" style="stroke:#181818;stroke-width:0.5;"/><text fill="#000000" font-family="sans-serif" font-size="14" lengthAdjust="spacing" textLength="23" x="749.7487" y="473.3703">fps</text></g><g id="elem_communication"><ellipse cx="760.9563" cy="345.7913" fill="#F1F1F1" rx="76.9563" ry="17.7913" style="stroke:#181818;stroke-width:0.5;"/><text fill="#000000" font-family="sans-serif" font-size="14" lengthAdjust="spacing" textLength="111" x="702.5675" y="349.5101">communication</text></g><g id="elem_fmac"><ellipse cx="93.9961" cy="470.5423" fill="#F1F1F1" rx="36.9961" ry="14.5423" style="stroke:#181818;stroke-width:0.5;"/><text fill="#000000" font-family="sans-serif" font-size="14" lengthAdjust="spacing" textLength="36" x="74.6301" y="473.8527">fmac</text></g><g id="elem_eaic"><ellipse cx="989.9914" cy="20.5236" fill="#F1F1F1" rx="31.9914" ry="14.5236" style="stroke:#181818;stroke-width:0.5;"/><text fill="#000000" font-family="sans-serif" font-size="14" lengthAdjust="spacing" textLength="29" x="975.4914" y="23.3703">eaic</text></g><g id="elem_ccu"><ellipse cx="682.9558" cy="236.0236" fill="#F1F1F1" rx="28.4558" ry="14.5236" style="stroke:#181818;stroke-width:0.5;"/><text fill="#000000" font-family="sans-serif" font-size="14" lengthAdjust="spacing" textLength="24" x="670.9558" y="238.8703">ccu</text></g><g id="elem_aggregation"><ellipse cx="706.8807" cy="127.9761" fill="#F1F1F1" rx="67.8807" ry="15.9761" style="stroke:#181818;stroke-width:0.5;"/><text fill="#000000" font-family="sans-serif" font-size="14" lengthAdjust="spacing" textLength="87" x="660.3807" y="131.7237">aggregation</text></g><g id="elem_extinguishing"><ellipse cx="1180.1781" cy="346.1356" fill="#F1F1F1" rx="71.1781" ry="16.6356" style="stroke:#181818;stroke-width:0.5;"/><text fill="#000000" font-family="sans-serif" font-size="14" lengthAdjust="spacing" textLength="96" x="1129.1781" y="349.8832">extinguishing</text></g><g id="elem_movement"><ellipse cx="532.0766" cy="345.9153" fill="#F1F1F1" rx="65.0766" ry="15.4153" style="stroke:#181818;stroke-width:0.5;"/><text fill="#000000" font-family="sans-serif" font-size="14" lengthAdjust="spacing" textLength="79" x="489.5766" y="349.6629">movement</text></g><g id="elem_situation"><ellipse cx="312.0799" cy="345.7511" fill="#F1F1F1" rx="57.0799" ry="14.7511" style="stroke:#181818;stroke-width:0.5;"/><text fill="#000000" font-family="sans-serif" font-size="14" lengthAdjust="spacing" textLength="63" x="277.5799" y="349.4987">situation</text></g><g id="elem_navigation"><ellipse cx="400.2248" cy="236.145" fill="#F1F1F1" rx="63.7248" ry="15.145" style="stroke:#181818;stroke-width:0.5;"/><text fill="#000000" font-family="sans-serif" font-size="14" lengthAdjust="spacing" textLength="75" x="359.7248" y="239.8925">navigation</text></g><!--link fps to communication--><g id="link_fps_communication"><path d="M738.894,461.7428 C723.261,454.959 703.464,443.4282 694,426 C687.213,413.5016 687.438,406.6181 694,394 C701.08,380.386 708.9591,372.9683 721.6591,365.3873 " fill="none" id="fps-to-communication" style="stroke:#181818;stroke-width:1.0;"/><polygon fill="#181818" points="726.811,362.312,717.0329,363.4904,722.5177,364.8748,721.1333,370.3596,726.811,362.312" style="stroke:#181818;stroke-width:1.0;"/><text fill="#000000" font-family="sans-serif" font-size="13" lengthAdjust="spacing" textLength="86" x="695" y="414.5669">1. start at val</text></g><!--link communication to fps--><g id="link_communication_fps"><path d="M772.661,364.024 C777.843,372.606 783.361,383.418 786,394 C789.442,407.7995 789.667,412.2587 786,426 C783.035,437.109 779.8698,443.3757 774.2158,451.6369 " fill="none" id="communication-to-fps" style="stroke:#181818;stroke-width:1.0;"/><polygon fill="#181818" points="770.827,456.5883,779.2111,451.4204,773.651,452.4621,772.6092,446.902,770.827,456.5883" style="stroke:#181818;stroke-width:1.0;"/><text fill="#000000" font-family="sans-serif" font-size="13" lengthAdjust="spacing" textLength="110" x="795" y="407.0669">31. started at val</text><text fill="#000000" font-family="sans-serif" font-size="13" lengthAdjust="spacing" textLength="124" x="790" y="422.1997">(not_started at val)</text></g><!--link communication to fmac--><g id="link_communication_fmac"><path d="M702.393,357.764 C566.335,382.752 238.5103,442.9595 132.6693,462.3982 " fill="none" id="communication-to-fmac" style="stroke:#181818;stroke-width:1.0;"/><polygon fill="#181818" points="126.768,463.482,136.3425,465.7905,131.6857,462.5788,134.8974,457.9221,126.768,463.482" style="stroke:#181818;stroke-width:1.0;"/><text fill="#000000" font-family="sans-serif" font-size="13" lengthAdjust="spacing" textLength="86" x="489" y="414.5669">2. start at val</text></g><!--link fmac to eaic--><g id="link_fmac_eaic"><path d="M77.0327,457.3147 C51.4609,437.3863 6,395.1824 6,347 C6,127 6,127 6,127 C6,28.96 782.234,21.8916 951.82,21.5076 " fill="none" id="fmac-to-eaic" style="stroke:#181818;stroke-width:1.0;"/><polygon fill="#181818" points="957.82,21.494,948.811,17.5144,952.82,21.5053,948.8291,25.5144,957.82,21.494" style="stroke:#181818;stroke-width:1.0;"/><text fill="#000000" font-family="sans-serif" font-size="13" lengthAdjust="spacing" textLength="108" x="7" y="240.5669">3. execute at val</text></g><!--link fmac to ccu--><g id="link_fmac_ccu"><path d="M94.3477,455.9143 C96.1727,418.0498 107.353,312.077 175,281 C196.971,270.907 545.523,246.3991 648.92,239.3161 " fill="none" id="fmac-to-ccu" style="stroke:#181818;stroke-width:1.0;"/><polygon fill="#181818" points="654.906,238.906,645.6537,235.5304,649.9177,239.2477,646.2004,243.5117,654.906,238.906" style="stroke:#181818;stroke-width:1.0;"/><text fill="#000000" font-family="sans-serif" font-size="13" lengthAdjust="spacing" textLength="108" x="127" y="350.5669">4. execute at val</text></g><!--link eaic to aggregation--><g id="link_eaic_aggregation"><path d="M958.307,22.574 C895.663,25.339 759.098,34.762 725,65 C711.75,76.75 708.3897,91.6257 707.4597,105.8777 " fill="none" id="eaic-to-aggregation" style="stroke:#181818;stroke-width:1.0;"/><polygon fill="#181818" points="707.069,111.865,711.6466,103.1446,707.3946,106.8756,703.6635,102.6236,707.069,111.865" style="stroke:#181818;stroke-width:1.0;"/><text fill="#000000" font-family="sans-serif" font-size="13" lengthAdjust="spacing" textLength="127" x="726" y="78.0669">18. get_coordinates</text></g><!--link aggregation to eaic--><g id="link_aggregation_eaic"><path d="M750.819,115.69 C781.25,107.413 822.538,95.336 858,82 C879.531,73.903 932.032,49.1861 963.514,34.1771 " fill="none" id="aggregation-to-eaic" style="stroke:#181818;stroke-width:1.0;"/><polygon fill="#181818" points="968.93,31.595,959.0846,31.8574,964.4167,33.7467,962.5274,39.0788,968.93,31.595" style="stroke:#181818;stroke-width:1.0;"/><text fill="#000000" font-family="sans-serif" font-size="13" lengthAdjust="spacing" textLength="153" x="898" y="78.0669">19. coordinates with val</text></g><!--link eaic to extinguishing--><g id="link_eaic_extinguishing"><path d="M1013.3,30.606 C1028.25,37.693 1046.71,49.028 1057,65 C1087.67,112.609 1051.66,139.865 1076,191 C1099.26,239.859 1130.41,234.449 1158,281 C1167.11,296.363 1171.672,310.2299 1175.092,323.6859 " fill="none" id="eaic-to-extinguishing" style="stroke:#181818;stroke-width:1.0;"/><polygon fill="#181818" points="1176.57,329.501,1178.2298,319.793,1175.3384,324.6551,1170.4763,321.7636,1176.57,329.501" style="stroke:#181818;stroke-width:1.0;"/><text fill="#000000" font-family="sans-serif" font-size="13" lengthAdjust="spacing" textLength="100" x="1077" y="187.0669">21. start_action</text></g><!--link extinguishing to eaic--><g id="link_extinguishing_eaic"><path d="M1184.13,329.148 C1191.42,298.022 1203.82,227.306 1182,174 C1157.77,114.796 1139.37,103.124 1088,65 C1065.88,48.582 1042.2509,38.5677 1021.4709,31.3867 " fill="none" id="extinguishing-to-eaic" style="stroke:#181818;stroke-width:1.0;"/><polygon fill="#181818" points="1015.8,29.427,1022.9999,36.1472,1020.5258,31.0601,1025.6129,28.586,1015.8,29.427" style="stroke:#181818;stroke-width:1.0;"/><text fill="#000000" font-family="sans-serif" font-size="13" lengthAdjust="spacing" textLength="119" x="1189" y="187.0669">15. confirm_action</text></g><!--link extinguishing to eaic--><g id="link_extinguishing_eaic"><path d="M1207.51,330.564 C1257.28,302.441 1353.87,237.489 1317,174 C1254.01,65.525 1095.431,34.207 1026.761,25.379 " fill="none" id="extinguishing-to-eaic-1" style="stroke:#181818;stroke-width:1.0;"/><polygon fill="#181818" points="1020.81,24.614,1029.2265,29.7289,1025.7692,25.2515,1030.2466,21.7942,1020.81,24.614" style="stroke:#181818;stroke-width:1.0;"/><text fill="#000000" font-family="sans-serif" font-size="13" lengthAdjust="spacing" textLength="98" x="1325" y="187.0669">28. stop_action</text></g><!--link ccu to aggregation--><g id="link_ccu_aggregation"><path d="M710.516,232.192 C755.32,226.99 840.877,214.212 859,191 C886.449,155.844 829.4849,141.2435 776.4299,134.6275 " fill="none" id="ccu-to-aggregation" style="stroke:#181818;stroke-width:1.0;"/><polygon fill="#181818" points="770.476,133.885,778.9119,138.9679,775.4376,134.5037,779.9018,131.0294,770.476,133.885" style="stroke:#181818;stroke-width:1.0;"/><text fill="#000000" font-family="sans-serif" font-size="13" lengthAdjust="spacing" textLength="119" x="867" y="187.0669">9. get_coordinates</text></g><!--link aggregation to ccu--><g id="link_aggregation_ccu"><path d="M703.119,144.385 C700.96,153.066 698.259,164.122 696,174 C692.282,190.255 689.5467,203.152 686.9897,215.531 " fill="none" id="aggregation-to-ccu" style="stroke:#181818;stroke-width:1.0;"/><polygon fill="#181818" points="685.776,221.407,691.5139,213.4022,686.7874,216.5104,683.6793,211.7839,685.776,221.407" style="stroke:#181818;stroke-width:1.0;"/><text fill="#000000" font-family="sans-serif" font-size="13" lengthAdjust="spacing" textLength="153" x="697" y="187.0669">10. coordinates with val</text></g><!--link ccu to movement--><g id="link_ccu_movement"><path d="M668.923,248.644 C653.529,261.227 627.981,281.668 605,298 C588.413,309.788 574.1128,319.0416 559.4848,328.1536 " fill="none" id="ccu-to-movement" style="stroke:#181818;stroke-width:1.0;"/><polygon fill="#181818" points="554.392,331.326,564.146,329.9626,558.636,328.6824,559.9162,323.1723,554.392,331.326" style="stroke:#181818;stroke-width:1.0;"/><text fill="#000000" font-family="sans-serif" font-size="13" lengthAdjust="spacing" textLength="101" x="628" y="294.0669">11. move to val</text></g><!--link movement to ccu--><g id="link_movement_ccu"><path d="M515.816,330.861 C502.203,317.251 486.765,296.506 499,281 C518.125,256.762 602.4254,245.0163 649.0304,240.1563 " fill="none" id="movement-to-ccu" style="stroke:#181818;stroke-width:1.0;"/><polygon fill="#181818" points="654.998,239.534,645.6317,236.489,650.025,240.0526,646.4614,244.4459,654.998,239.534" style="stroke:#181818;stroke-width:1.0;"/><text fill="#000000" font-family="sans-serif" font-size="13" lengthAdjust="spacing" textLength="96" x="500" y="294.0669">13. done at val</text></g><!--link ccu to extinguishing--><g id="link_ccu_extinguishing"><path d="M711.68,237.817 C770.104,240.123 906.634,248.807 1016,281 C1032.97,285.997 1035.68,291.166 1052,298 C1081.81,310.48 1110.5576,321.0296 1136.1876,330.0116 " fill="none" id="ccu-to-extinguishing" style="stroke:#181818;stroke-width:1.0;"/><polygon fill="#181818" points="1141.85,331.996,1134.6794,325.2445,1137.1314,330.3424,1132.0336,332.7944,1141.85,331.996" style="stroke:#181818;stroke-width:1.0;"/><text fill="#000000" font-family="sans-serif" font-size="13" lengthAdjust="spacing" textLength="100" x="1053" y="294.0669">14. start_action</text></g><!--link ccu to extinguishing--><g id="link_ccu_extinguishing"><path d="M708.741,242.264 C745.873,249.995 816.542,265.219 876,281 C901.14,287.673 906.741,291.792 932,298 C996.897,313.951 1066.5615,326.5904 1117.0715,335.0014 " fill="none" id="ccu-to-extinguishing-1" style="stroke:#181818;stroke-width:1.0;"/><polygon fill="#181818" points="1122.99,335.987,1114.7693,330.563,1118.0579,335.1657,1113.4552,338.4543,1122.99,335.987" style="stroke:#181818;stroke-width:1.0;"/><text fill="#000000" font-family="sans-serif" font-size="13" lengthAdjust="spacing" textLength="74" x="933" y="294.0669">stop_action</text></g><!--link ccu to situation--><g id="link_ccu_situation"><path d="M655.211,239.276 C579.815,245.646 375.342,264.281 350,281 C332.203,292.741 323.5647,310.2784 318.2487,325.2834 " fill="none" id="ccu-to-situation" style="stroke:#181818;stroke-width:1.0;"/><polygon fill="#181818" points="316.245,330.939,323.0209,323.7914,317.9147,326.226,315.4801,321.1199,316.245,330.939" style="stroke:#181818;stroke-width:1.0;"/><text fill="#000000" font-family="sans-serif" font-size="13" lengthAdjust="spacing" textLength="135" x="351" y="294.0669">22. is_action_running</text></g><!--link situation to ccu--><g id="link_situation_ccu"><path d="M265.023,337.345 C219.973,328.09 162.433,310.038 189,281 C196.937,272.325 545.2143,246.8329 648.8313,239.4249 " fill="none" id="situation-to-ccu" style="stroke:#181818;stroke-width:1.0;"/><polygon fill="#181818" points="654.816,238.997,645.5537,235.649,649.8287,239.3536,646.1242,243.6286,654.816,238.997" style="stroke:#181818;stroke-width:1.0;"/><text fill="#000000" font-family="sans-serif" font-size="13" lengthAdjust="spacing" textLength="135" x="190" y="294.0669">23. action_is_running</text></g><!--link ccu to communication--><g id="link_ccu_communication"><path d="M704.113,245.982 C718.705,253.289 737.341,265.013 748,281 C757.309,294.961 759.8576,308.1807 760.6396,321.9027 " fill="none" id="ccu-to-communication" style="stroke:#181818;stroke-width:1.0;"/><polygon fill="#181818" points="760.981,327.893,764.4625,318.68,760.6965,322.9011,756.4754,319.1352,760.981,327.893" style="stroke:#181818;stroke-width:1.0;"/><text fill="#000000" font-family="sans-serif" font-size="13" lengthAdjust="spacing" textLength="110" x="757" y="294.0669">30. started at val</text></g><!--link aggregation to navigation--><g id="link_aggregation_navigation"><path d="M640.605,131.659 C531.96,136.698 326.002,149.405 304,174 C283.528,196.886 317.5971,212.7573 352.0161,223.0413 " fill="none" id="aggregation-to-navigation" style="stroke:#181818;stroke-width:1.0;"/><polygon fill="#181818" points="357.765,224.759,350.2868,218.3499,352.9743,223.3276,347.9966,226.015,357.765,224.759" style="stroke:#181818;stroke-width:1.0;"/><text fill="#000000" font-family="sans-serif" font-size="13" lengthAdjust="spacing" textLength="143" x="305" y="187.0669">5. 16. get_coordinates</text></g><!--link navigation to aggregation--><g id="link_navigation_aggregation"><path d="M420.647,221.804 C442.905,208.1 479.759,186.896 514,174 C559.399,156.902 607.4367,146.0761 646.7347,138.8221 " fill="none" id="navigation-to-aggregation" style="stroke:#181818;stroke-width:1.0;"/><polygon fill="#181818" points="652.635,137.733,643.0584,135.4332,647.7181,138.6406,644.5106,143.3003,652.635,137.733" style="stroke:#181818;stroke-width:1.0;"/><text fill="#000000" font-family="sans-serif" font-size="13" lengthAdjust="spacing" textLength="169" x="515" y="187.0669">6. 17. coordinates with val</text></g><!--SRC=[ZPBDReCm48JlFCKUmo6eXgHDSkYJL4AMCSHIRKTuJVFujG7pPrBr515zipFUsKFzC2aSZvzmO5fAgmIZABHAuGOa0uEqHQ087VrELi2WgILb7it_WNgZ6nHXAgz66BxKGMair_-cYPyzI3aLlKkH0NzoPf47dvbXp7ha525U39wWJTFoPdxT9OE6OycqRYkXA78pihtb4uLgh31tzzE_CEGkAVCZ4cUuD_OQJ-r9ZqhTSSaLzlPkdly6rCF60XGvazEUyovgK3yYoWYqKxpSDINCo9IjLSf9PpQwWU9jMrUoUF0WKhGJymBE6P3tU0cHQYoCE8C51py2x_isuGh8zOLYpZ48DisuKEJZXJGqiuxcxgtIQhgaQP4hAdVKk4wtsB3HLJMR_6SVGjMYbQ6hF-ZyaYrh_GK0]--></g></svg>