<?xml version="1.0" encoding="us-ascii" standalone="no"?><svg xmlns="http://www.w3.org/2000/svg" xmlns:xlink="http://www.w3.org/1999/xlink" contentStyleType="text/css" height="491px" preserveAspectRatio="none" style="width:997px;height:491px;background:#FFFFFF;" version="1.1" viewBox="0 0 997 491" width="997px" zoomAndPan="magnify"><defs/><g><g id="elem_fps"><ellipse cx="702.2487" cy="470.5236" fill="#F1F1F1" rx="27.7487" ry="14.5236" style="stroke:#181818;stroke-width:0.5;"/><text fill="#000000" font-family="sans-serif" font-size="14" lengthAdjust="spacing" textLength="23" x="690.7487" y="473.3703">fps</text></g><g id="elem_communication"><ellipse cx="701.9563" cy="345.7913" fill="#F1F1F1" rx="76.9563" ry="17.7913" style="stroke:#181818;stroke-width:0.5;"/><text fill="#000000" font-family="sans-serif" font-size="14" lengthAdjust="spacing" textLength="111" x="643.5675" y="349.5101">communication</text></g><g id="elem_fmac"><ellipse cx="330.9961" cy="470.5423" fill="#F1F1F1" rx="36.9961" ry="14.5423" style="stroke:#181818;stroke-width:0.5;"/><text fill="#000000" font-family="sans-serif" font-size="14" lengthAdjust="spacing" textLength="36" x="311.6301" y="473.8527">fmac</text></g><g id="elem_eaic"><ellipse cx="638.9914" cy="20.5236" fill="#F1F1F1" rx="31.9914" ry="14.5236" style="stroke:#181818;stroke-width:0.5;"/><text fill="#000000" font-family="sans-serif" font-size="14" lengthAdjust="spacing" textLength="29" x="624.4914" y="23.3703">eaic</text></g><g id="elem_ccu"><ellipse cx="467.9558" cy="236.0236" fill="#F1F1F1" rx="28.4558" ry="14.5236" style="stroke:#181818;stroke-width:0.5;"/><text fill="#000000" font-family="sans-serif" font-size="14" lengthAdjust="spacing" textLength="24" x="455.9558" y="238.8703">ccu</text></g><g id="elem_aggregation"><ellipse cx="467.8807" cy="127.9761" fill="#F1F1F1" rx="67.8807" ry="15.9761" style="stroke:#181818;stroke-width:0.5;"/><text fill="#000000" font-family="sans-serif" font-size="14" lengthAdjust="spacing" textLength="87" x="421.3807" y="131.7237">aggregation</text></g><g id="elem_extinguishing"><ellipse cx="885.1781" cy="346.1356" fill="#F1F1F1" rx="71.1781" ry="16.6356" style="stroke:#181818;stroke-width:0.5;"/><text fill="#000000" font-family="sans-serif" font-size="14" lengthAdjust="spacing" textLength="96" x="834.1781" y="349.8832">extinguishing</text></g><g id="elem_movement"><ellipse cx="525.0766" cy="345.9153" fill="#F1F1F1" rx="65.0766" ry="15.4153" style="stroke:#181818;stroke-width:0.5;"/><text fill="#000000" font-family="sans-serif" font-size="14" lengthAdjust="spacing" textLength="79" x="482.5766" y="349.6629">movement</text></g><g id="elem_situation"><ellipse cx="160.0799" cy="345.7511" fill="#F1F1F1" rx="57.0799" ry="14.7511" style="stroke:#181818;stroke-width:0.5;"/><text fill="#000000" font-family="sans-serif" font-size="14" lengthAdjust="spacing" textLength="63" x="125.5799" y="349.4987">situation</text></g><g id="elem_navigation"><ellipse cx="277.2248" cy="236.145" fill="#F1F1F1" rx="63.7248" ry="15.145" style="stroke:#181818;stroke-width:0.5;"/><text fill="#000000" font-family="sans-serif" font-size="14" lengthAdjust="spacing" textLength="75" x="236.7248" y="239.8925">navigation</text></g><!--link fps to communication--><g id="link_fps_communication"><path d="M681.584,460.5953 C667.925,453.4216 651.033,441.9029 643,426 C636.588,413.3054 636.826,406.8122 643,394 C649.254,381.023 656.0663,373.8967 667.4613,366.1387 " fill="none" id="fps-to-communication" style="stroke:#181818;stroke-width:1.0;"/><polygon fill="#181818" points="672.421,362.762,662.7304,364.5205,668.288,365.5759,667.2326,371.1334,672.421,362.762" style="stroke:#181818;stroke-width:1.0;"/><text fill="#000000" font-family="sans-serif" font-size="13" lengthAdjust="spacing" textLength="70" x="644" y="414.5669">start at val</text></g><!--link communication to fps--><g id="link_communication_fps"><path d="M709.774,364.017 C713.354,372.776 717.202,383.744 719,394 C721.456,408.0086 721.634,412.0238 719,426 C717.018,436.5178 715.0572,442.2987 711.2042,450.7165 " fill="none" id="communication-to-fps" style="stroke:#181818;stroke-width:1.0;"/><polygon fill="#181818" points="708.707,456.1722,716.0899,449.6535,710.788,451.6258,708.8156,446.3239,708.707,456.1722" style="stroke:#181818;stroke-width:1.0;"/><text fill="#000000" font-family="sans-serif" font-size="13" lengthAdjust="spacing" textLength="86" x="739" y="407.0669">started at val</text><text fill="#000000" font-family="sans-serif" font-size="13" lengthAdjust="spacing" textLength="124" x="722" y="422.1997">(not_started at val)</text></g><!--link communication to fmac--><g id="link_communication_fmac"><path d="M659.129,361.063 C630.719,370.389 592.627,382.906 559,394 C486.338,417.9716 406.3927,444.4797 363.7137,458.6418 " fill="none" id="communication-to-fmac" style="stroke:#181818;stroke-width:1.0;"/><polygon fill="#181818" points="358.019,460.5315,367.8208,461.4935,362.7646,458.9568,365.3012,453.9006,358.019,460.5315" style="stroke:#181818;stroke-width:1.0;"/><text fill="#000000" font-family="sans-serif" font-size="13" lengthAdjust="spacing" textLength="70" x="560" y="414.5669">start at val</text></g><!--link fmac to eaic--><g id="link_fmac_eaic"><path d="M297.443,464.2106 C214.406,450.1791 6,408.8061 6,347 C6,127 6,127 6,127 C6,65.306 473.8948,31.7671 601.6208,23.7461 " fill="none" id="fmac-to-eaic" style="stroke:#181818;stroke-width:1.0;"/><polygon fill="#181818" points="607.609,23.37,598.376,19.9419,602.6188,23.6834,598.8774,27.9262,607.609,23.37" style="stroke:#181818;stroke-width:1.0;"/><text fill="#000000" font-family="sans-serif" font-size="13" lengthAdjust="spacing" textLength="92" x="7" y="240.5669">execute at val</text></g><!--link fmac to ccu--><g id="link_fmac_ccu"><path d="M329.63,455.7332 C327.633,429.3493 326.251,370.513 348,328 C369.078,286.8 412.9317,261.5962 441.3497,248.4052 " fill="none" id="fmac-to-ccu" style="stroke:#181818;stroke-width:1.0;"/><polygon fill="#181818" points="446.792,245.879,436.9445,246.0401,442.2568,247.9842,440.3127,253.2965,446.792,245.879" style="stroke:#181818;stroke-width:1.0;"/><text fill="#000000" font-family="sans-serif" font-size="13" lengthAdjust="spacing" textLength="92" x="349" y="350.5669">execute at val</text></g><!--link eaic to aggregation--><g id="link_eaic_aggregation"><path d="M633.539,34.938 C627.332,48.618 615.951,69.534 600,82 C576.917,100.04 551.9793,109.5988 525.9653,116.2258 " fill="none" id="eaic-to-aggregation" style="stroke:#181818;stroke-width:1.0;"/><polygon fill="#181818" points="520.151,117.707,529.8599,119.3614,524.9963,116.4727,527.885,111.609,520.151,117.707" style="stroke:#181818;stroke-width:1.0;"/><text fill="#000000" font-family="sans-serif" font-size="13" lengthAdjust="spacing" textLength="103" x="618" y="78.0669">get_coordinates</text></g><!--link aggregation to eaic--><g id="link_aggregation_eaic"><path d="M460.75,111.83 C455.385,98.15 450.632,78.207 461,65 C478.974,42.104 556.247,30.3885 602.256,25.1835 " fill="none" id="aggregation-to-eaic" style="stroke:#181818;stroke-width:1.0;"/><polygon fill="#181818" points="608.218,24.509,598.8254,21.5461,603.2497,25.0711,599.7247,29.4954,608.218,24.509" style="stroke:#181818;stroke-width:1.0;"/><text fill="#000000" font-family="sans-serif" font-size="13" lengthAdjust="spacing" textLength="129" x="462" y="78.0669">coordinates with val</text></g><!--link eaic to extinguishing--><g id="link_eaic_extinguishing"><path d="M665.04,29.149 C684.741,35.987 711.475,47.636 730,65 C815.537,145.173 863.5271,277.6897 878.4031,323.8077 " fill="none" id="eaic-to-extinguishing" style="stroke:#181818;stroke-width:1.0;"/><polygon fill="#181818" points="880.245,329.518,881.289,319.7246,878.7101,324.7594,873.6753,322.1805,880.245,329.518" style="stroke:#181818;stroke-width:1.0;"/><text fill="#000000" font-family="sans-serif" font-size="13" lengthAdjust="spacing" textLength="76" x="822" y="187.0669">start_action</text></g><!--link extinguishing to eaic--><g id="link_extinguishing_eaic"><path d="M892.549,329.417 C906.536,298.165 932.811,226.351 907,174 C860.364,79.411 732.6578,41.3916 673.5698,28.2926 " fill="none" id="extinguishing-to-eaic" style="stroke:#181818;stroke-width:1.0;"/><polygon fill="#181818" points="667.712,26.994,675.633,32.8471,672.5935,28.0762,677.3644,25.0367,667.712,26.994" style="stroke:#181818;stroke-width:1.0;"/><text fill="#000000" font-family="sans-serif" font-size="13" lengthAdjust="spacing" textLength="74" x="915" y="187.0669">stop_action</text></g><!--link ccu to aggregation--><g id="link_ccu_aggregation"><path d="M466.812,221.141 C466.131,212.483 465.344,201.101 465,191 C464.454,174.952 465.0731,162.5623 466.0931,150.0093 " fill="none" id="ccu-to-aggregation" style="stroke:#181818;stroke-width:1.0;"/><polygon fill="#181818" points="466.579,144.029,461.8632,152.6755,466.1741,149.0126,469.837,153.3234,466.579,144.029" style="stroke:#181818;stroke-width:1.0;"/><text fill="#000000" font-family="sans-serif" font-size="13" lengthAdjust="spacing" textLength="103" x="466" y="187.0669">get_coordinates</text></g><!--link aggregation to ccu--><g id="link_aggregation_ccu"><path d="M518.392,138.877 C553.612,148.249 591.461,164.847 574,191 C556.63,217.017 526.6096,226.6514 501.4156,231.0004 " fill="none" id="aggregation-to-ccu" style="stroke:#181818;stroke-width:1.0;"/><polygon fill="#181818" points="495.503,232.021,505.0523,234.4318,500.4301,231.1705,503.6914,226.5484,495.503,232.021" style="stroke:#181818;stroke-width:1.0;"/><text fill="#000000" font-family="sans-serif" font-size="13" lengthAdjust="spacing" textLength="129" x="580" y="187.0669">coordinates with val</text></g><!--link ccu to movement--><g id="link_ccu_movement"><path d="M474.989,250.243 C485.691,270.52 503.2674,303.8227 514.4234,324.9597 " fill="none" id="ccu-to-movement" style="stroke:#181818;stroke-width:1.0;"/><polygon fill="#181818" points="517.224,330.266,516.5606,320.4395,514.8901,325.8441,509.4856,324.1737,517.224,330.266" style="stroke:#181818;stroke-width:1.0;"/><text fill="#000000" font-family="sans-serif" font-size="13" lengthAdjust="spacing" textLength="77" x="501" y="294.0669">move to val</text></g><!--link movement to ccu--><g id="link_movement_ccu"><path d="M472.251,336.924 C449.084,330.467 424.009,318.859 410,298 C396.231,277.498 420.5866,260.2334 442.3546,248.9954 " fill="none" id="movement-to-ccu" style="stroke:#181818;stroke-width:1.0;"/><polygon fill="#181818" points="447.686,246.243,437.8539,246.8173,443.2431,248.5367,441.5238,253.9259,447.686,246.243" style="stroke:#181818;stroke-width:1.0;"/><text fill="#000000" font-family="sans-serif" font-size="13" lengthAdjust="spacing" textLength="72" x="411" y="294.0669">done at val</text></g><!--link ccu to extinguishing--><g id="link_ccu_extinguishing"><path d="M495.526,240.179 C541.687,245.888 637.376,259.342 716,281 C742.164,288.207 804.5751,312.6704 845.9061,329.2224 " fill="none" id="ccu-to-extinguishing" style="stroke:#181818;stroke-width:1.0;"/><polygon fill="#181818" points="851.476,331.453,844.6082,324.3938,846.8344,329.5941,841.634,331.8204,851.476,331.453" style="stroke:#181818;stroke-width:1.0;"/><text fill="#000000" font-family="sans-serif" font-size="13" lengthAdjust="spacing" textLength="76" x="767" y="294.0669">start_action</text></g><!--link ccu to situation--><g id="link_ccu_situation"><path d="M440.9,240.648 C418.65,243.595 386.308,247.769 358,251 C325.046,254.761 83.2436,256.396 61,281 C38.9022,305.442 78.0023,322.7524 114.3353,333.4974 " fill="none" id="ccu-to-situation" style="stroke:#181818;stroke-width:1.0;"/><polygon fill="#181818" points="120.089,335.199,112.5929,328.8109,115.2943,333.781,110.3241,336.4824,120.089,335.199" style="stroke:#181818;stroke-width:1.0;"/><text fill="#000000" font-family="sans-serif" font-size="13" lengthAdjust="spacing" textLength="111" x="62" y="294.0669">is_action_running</text></g><!--link situation to ccu--><g id="link_situation_ccu"><path d="M167.731,331.012 C176.774,316.071 193.192,292.934 214,281 C233.508,269.811 373.021,249.8784 434.622,241.4814 " fill="none" id="situation-to-ccu" style="stroke:#181818;stroke-width:1.0;"/><polygon fill="#181818" points="440.567,240.671,431.1092,237.9232,435.6128,241.3463,432.1897,245.8499,440.567,240.671" style="stroke:#181818;stroke-width:1.0;"/><text fill="#000000" font-family="sans-serif" font-size="13" lengthAdjust="spacing" textLength="111" x="215" y="294.0669">action_is_running</text></g><!--link ccu to communication--><g id="link_ccu_communication"><path d="M491.237,244.411 C515.538,252.432 554.58,266.092 587,281 C618.347,295.414 647.5751,312.0107 670.5021,325.7267 " fill="none" id="ccu-to-communication" style="stroke:#181818;stroke-width:1.0;"/><polygon fill="#181818" points="675.651,328.807,669.9812,320.7539,671.3602,326.2401,665.874,327.6191,675.651,328.807" style="stroke:#181818;stroke-width:1.0;"/><text fill="#000000" font-family="sans-serif" font-size="13" lengthAdjust="spacing" textLength="86" x="621" y="294.0669">started at val</text></g><!--link aggregation to navigation--><g id="link_aggregation_navigation"><path d="M399.879,128.597 C316.035,129.724 180.822,137.374 149,174 C123.571,203.268 171.9779,218.5436 217.5359,226.7876 " fill="none" id="aggregation-to-navigation" style="stroke:#181818;stroke-width:1.0;"/><polygon fill="#181818" points="223.44,227.856,215.2961,222.3173,218.5199,226.9657,213.8716,230.1895,223.44,227.856" style="stroke:#181818;stroke-width:1.0;"/><text fill="#000000" font-family="sans-serif" font-size="13" lengthAdjust="spacing" textLength="103" x="150" y="187.0669">get_coordinates</text></g><!--link navigation to aggregation--><g id="link_navigation_aggregation"><path d="M284.939,220.88 C293.41,207.039 308.068,186.281 326,174 C352.458,155.881 380.7617,146.1363 408.9367,139.4813 " fill="none" id="navigation-to-aggregation" style="stroke:#181818;stroke-width:1.0;"/><polygon fill="#181818" points="414.776,138.102,405.0975,136.278,409.9099,139.2514,406.9365,144.0638,414.776,138.102" style="stroke:#181818;stroke-width:1.0;"/><text fill="#000000" font-family="sans-serif" font-size="13" lengthAdjust="spacing" textLength="129" x="327" y="187.0669">coordinates with val</text></g><!--SRC=[ZP51ZiCW34NtEOMNoQ8NcCMSf59a4PSY3QOA9jFZJmY4b2cLiWBXz_tDTtzx-04kbs_ebRCsi54enl40N-05Pm4KMF2dgwf9SBEeJd7H8cCqPH2ktBEJiNuTkjWqoGZDrfwUf8BGRd00IeL6FSeWbb7hcNJvZIOPbNFpP1Y5VEOsewSOri7u-tgKIKTKKTgjBcVQRLZah5l84ak4uXt4fM1su8HTnBoHKDoCp_Ln3iohxk3QQok9TYzp9m7ZOZx_umtFARymy6latkwzxwn97yO9_fTeKxEdMSqoEIxhBZ5LH0vhZMtFgqgz7jQBU-Hu_m00]--></g></svg>